<?xml version="1.0" encoding="utf-8"?>
<!-- Generator: Adobe Illustrator 24.1.0, SVG Export Plug-In . SVG Version: 6.00 Build 0)  -->
<svg version="1.1" id="Layer_1" xmlns="http://www.w3.org/2000/svg" xmlns:xlink="http://www.w3.org/1999/xlink" x="0px" y="0px"
	 viewBox="0 0 50 50" style="enable-background:new 0 0 50 50;" xml:space="preserve">
<style type="text/css">
	.st0{fill:#FFFFFF;}
</style>
<g>
	<g>
		<path class="st0" d="M3.13,13.93c4.46-3.26,8.91-6.52,13.37-9.79c-0.61-0.79-1.21-1.57-1.82-2.36C9.97,5.59,5.82,9.97,2.2,14.81
			c-0.9,1.21,0.85,2.86,2.05,2.05c2.69-1.81,5.37-3.61,8.06-5.42c2.45-1.65,4.92-3.34,7.72-4.33c-0.49-0.84-0.97-1.67-1.46-2.51
			c-2.91,2.73-5.82,5.47-8.73,8.2c-2.81,2.64-5.64,5.26-8.11,8.22c-0.93,1.11-0.07,2.9,1.46,2.51c3.32-0.85,6.12-3.32,8.84-5.3
			c3.06-2.23,6.09-4.52,9.12-6.81C27.37,6.71,33.6,1.99,39.83-2.72c-0.61-0.79-1.21-1.57-1.82-2.36
			C32.64,0.45,26.8,5.49,21.14,10.72c-2.83,2.61-5.61,5.27-8.26,8.06c-1.32,1.39-2.61,2.82-3.85,4.29
			c-1.21,1.44-2.36,2.84-2.99,4.64c-0.39,1.12,0.8,2.11,1.85,1.85c2.28-0.58,4.17-1.91,6.06-3.27c2.03-1.46,4.02-2.96,5.99-4.5
			c4-3.1,7.9-6.32,11.8-9.54c1.5-1.24-0.63-3.29-2.12-2.12c-9.68,7.59-19.37,15.22-27.91,24.1c-1.17,1.22,0.32,3.23,1.82,2.36
			c5.19-3.02,9.67-7.25,14.24-11.11c4.84-4.1,9.66-8.22,14.46-12.36c1.27-1.1-0.46-3.4-1.82-2.36
			c-7.68,5.91-15.36,11.83-22.53,18.35c-1.46,1.33,0.65,3.29,2.12,2.12c8.08-6.42,15.92-13.13,23.5-20.13
			c1.46-1.35-0.64-3.27-2.12-2.12c-7.5,5.82-14.81,11.87-21.91,18.16c0.71,0.71,1.41,1.41,2.12,2.12
			c6.56-7.15,13.51-13.92,20.56-20.6c-0.71-0.71-1.41-1.41-2.12-2.12C22.2,14.01,14.62,21.73,7.29,29.7
			c-1.3,1.42,0.76,3.5,2.12,2.12c5-5.07,9.99-10.15,14.99-15.22c-0.71-0.71-1.41-1.41-2.12-2.12c-2.64,2.76-5.18,5.62-7.58,8.6
			c-1.14,1.41-2.25,2.84-3.33,4.29c-0.99,1.32-2.54,2.88-1.9,4.67c0.29,0.79,1,1.24,1.85,1.05c3.24-0.73,6.03-3.24,8.66-5.14
			c2.86-2.06,5.66-4.19,8.44-6.36c-0.71-0.71-1.41-1.41-2.12-2.12c-5.96,5.7-11.92,11.4-17.56,17.42c-1.33,1.42,0.67,3.38,2.12,2.12
			c7.33-6.35,14.4-12.99,21.18-19.91c1.14-1.17-0.42-3.42-1.82-2.36C20.23,24.34,10.79,32.65,2,41.63
			c-1.36,1.39,0.68,3.39,2.12,2.12C14,35.02,23.88,26.29,33.76,17.55c-0.71-0.71-1.41-1.41-2.12-2.12
			c-3.88,3.86-7.77,7.73-11.65,11.59c-3.7,3.68-7.55,7.27-10.95,11.23C8,39.45,9.4,41.71,10.85,40.61
			c10.61-7.97,19.72-17.71,30.27-25.76c-0.61-0.79-1.21-1.57-1.82-2.36c-4.23,4.21-8.46,8.42-12.66,12.65
			c-2.07,2.09-4.14,4.18-6.19,6.29c-1.87,1.92-3.96,3.81-5.1,6.28c-0.55,1.19,0.71,3.05,2.05,2.05
			c7.52-5.59,14.49-11.86,21.43-18.15c1.44-1.31-0.67-3.38-2.12-2.12C30.24,25.1,24,30.94,17.98,37.01
			c-0.97,0.98,0.01,3.12,1.46,2.51c3.99-1.68,7.17-4.78,10.46-7.52c1.78-1.49,3.57-2.98,5.35-4.47c0.89-0.74,1.78-1.49,2.68-2.23
			c0.51-0.43,1.02-0.85,1.53-1.28c0.16-0.14,1.21-0.98,1.07-1.01c-0.22-0.84-0.44-1.67-0.66-2.51c-5.39,5.93-10.62,12-15.69,18.21
			c-1.08,1.32,0.24,3.12,1.82,2.36c7.07-3.41,12.69-9.32,20.03-12.22c-0.49-0.84-0.97-1.67-1.46-2.51
			c-3.46,4.2-6.92,8.4-10.38,12.59c-1.01,1.23,0.28,3.35,1.82,2.36c3.46-2.24,6.93-4.47,10.39-6.71c-0.61-0.79-1.21-1.57-1.82-2.36
			c-1.75,2.13-3.49,4.26-5.24,6.4c-0.87,1.06-0.1,3.02,1.46,2.51c1.58-0.52,3.11-1.15,4.59-1.88c-0.61-0.79-1.21-1.57-1.82-2.36
			c-1.83,1.98-3.7,3.91-5.63,5.79c-1.38,1.35,0.73,3.46,2.12,2.12c1.92-1.85,3.84-3.7,5.76-5.55c1.39-1.34-0.72-3.44-2.12-2.12
			c-2.64,2.49-5.12,5.13-7.44,7.93c-1.05,1.27,0.25,3.22,1.82,2.36c1.85-1.02,3.7-2.03,5.56-3.05c0.85-0.47,1.71-0.94,2.56-1.41
			c0.33-0.18,2-1.31,2.27-1.13c-0.18-0.68-0.36-1.37-0.54-2.05c-1.41,1.93-2.82,3.87-4.23,5.8c-1.14,1.56,1.46,3.06,2.59,1.51
			c1.41-1.93,2.82-3.87,4.23-5.8c0.5-0.68,0.08-1.64-0.54-2.05c-1.99-1.31-4.43,0.65-6.15,1.6c-2.42,1.33-4.84,2.66-7.26,3.98
			c0.61,0.79,1.21,1.57,1.82,2.36c2.32-2.79,4.8-5.44,7.44-7.93c-0.71-0.71-1.41-1.41-2.12-2.12c-1.92,1.85-3.84,3.7-5.76,5.55
			c0.71,0.71,1.41,1.41,2.12,2.12c1.93-1.88,3.81-3.81,5.63-5.79c1.18-1.28-0.29-3.11-1.82-2.36c-1.26,0.62-2.54,1.14-3.88,1.58
			c0.49,0.84,0.97,1.67,1.46,2.51c1.75-2.13,3.49-4.26,5.24-6.4c1-1.23-0.28-3.35-1.82-2.36c-3.46,2.24-6.93,4.47-10.39,6.71
			c0.61,0.79,1.21,1.57,1.82,2.36c3.46-4.2,6.92-8.4,10.38-12.59c0.84-1.02,0.09-3.12-1.46-2.51c-7.61,3-13.43,8.99-20.75,12.52
			c0.61,0.79,1.21,1.57,1.82,2.36c5.07-6.2,10.3-12.27,15.69-18.21c0.72-0.8,0.49-2.24-0.66-2.51c-2.2-0.51-3.99,1.78-5.52,3.06
			c-1.97,1.65-3.95,3.3-5.92,4.95c-1.9,1.59-3.8,3.18-5.71,4.76c-1.7,1.42-3.47,2.87-5.53,3.74c0.49,0.84,0.97,1.67,1.46,2.51
			c6.02-6.07,12.26-11.91,18.72-17.5c-0.71-0.71-1.41-1.41-2.12-2.12c-6.75,6.11-13.51,12.24-20.82,17.68
			c0.68,0.68,1.37,1.37,2.05,2.05c1.1-2.39,3.17-4.17,4.98-6.03c2.06-2.1,4.12-4.2,6.2-6.29c4.09-4.12,8.2-8.21,12.32-12.3
			c1.17-1.16-0.43-3.42-1.82-2.36C29.06,20.31,19.94,30.06,9.34,38.02c0.61,0.79,1.21,1.57,1.82,2.36
			c3.41-3.96,7.25-7.55,10.95-11.23c3.88-3.86,7.77-7.73,11.65-11.59c1.38-1.37-0.68-3.39-2.12-2.12C21.76,24.16,11.88,32.9,2,41.63
			c0.71,0.71,1.41,1.41,2.12,2.12c8.61-8.79,17.83-16.97,27.62-24.43c-0.61-0.79-1.21-1.57-1.82-2.36
			c-6.79,6.92-13.86,13.56-21.18,19.91c0.71,0.71,1.41,1.41,2.12,2.12c5.64-6.02,11.6-11.72,17.56-17.42
			c1.43-1.37-0.65-3.28-2.12-2.12c-2.57,2.02-5.18,3.98-7.83,5.89c-1.28,0.92-2.57,1.84-3.86,2.74c-1.28,0.89-2.54,1.75-4.08,2.1
			c0.62,0.35,1.23,0.7,1.85,1.05c-0.13-0.37,0.83-1.31,1.05-1.62c0.5-0.68,1-1.35,1.51-2.02c0.99-1.29,2.01-2.57,3.05-3.82
			c2.05-2.47,4.19-4.86,6.42-7.18c1.34-1.39-0.76-3.5-2.12-2.12c-5,5.07-9.99,10.15-14.99,15.22C8,30.4,8.71,31.11,9.41,31.82
			c7.33-7.96,14.91-15.69,22.74-23.15c1.4-1.34-0.72-3.45-2.12-2.12c-7.04,6.67-14,13.44-20.56,20.6c-1.31,1.43,0.68,3.4,2.12,2.12
			c7.11-6.29,14.41-12.35,21.91-18.16c-0.71-0.71-1.41-1.41-2.12-2.12c-7.58,7-15.42,13.71-23.5,20.13
			c0.71,0.71,1.41,1.41,2.12,2.12c6.98-6.36,14.45-12.13,21.92-17.88c-0.61-0.79-1.21-1.57-1.82-2.36
			c-4.68,4.04-9.38,8.05-14.09,12.05c-4.49,3.81-8.89,7.98-14,10.96c0.61,0.79,1.21,1.57,1.82,2.36
			c8.54-8.89,18.23-16.52,27.91-24.1c-0.71-0.71-1.41-1.41-2.12-2.12c-3.66,3.02-7.31,6.04-11.05,8.96
			c-1.89,1.48-3.81,2.92-5.75,4.33c-1.78,1.29-3.56,2.69-5.73,3.24c0.62,0.62,1.23,1.23,1.85,1.85c0.62-1.79,2.15-3.26,3.37-4.66
			c1.17-1.33,2.38-2.63,3.61-3.9c2.57-2.66,5.26-5.2,7.99-7.7c5.46-5.01,11.05-9.88,16.22-15.2c1.14-1.17-0.41-3.42-1.82-2.36
			c-6.1,4.62-12.2,9.24-18.31,13.86c-2.96,2.24-5.92,4.48-8.92,6.67c-1.43,1.05-2.87,2.09-4.32,3.11c-1.37,0.96-2.74,1.89-4.38,2.31
			c0.49,0.84,0.97,1.67,1.46,2.51c2.47-2.96,5.31-5.58,8.11-8.22c2.91-2.73,5.82-5.47,8.73-8.2c1.06-0.99-0.03-3.01-1.46-2.51
			c-2.91,1.03-5.49,2.65-8.04,4.36c-2.82,1.89-5.63,3.79-8.45,5.69c0.68,0.68,1.37,1.37,2.05,2.05C8.25,11.7,12.31,7.54,16.8,3.91
			c1.31-1.06-0.44-3.36-1.82-2.36c-4.46,3.26-8.91,6.52-13.37,9.79C0.08,12.47,1.57,15.07,3.13,13.93L3.13,13.93z"/>
	</g>
</g>
</svg>
