<svg height="512pt" viewBox="0 0 512 512" width="512pt" xmlns="http://www.w3.org/2000/svg"><path d="m52.6875 370.851562-44.40625 116.597657c-1.03125 2.707031-.199219 6.59375 1.847656 8.640625l5.78125 5.78125c2.046875 2.046875 5.933594 2.878906 8.636719 1.847656l116.570313-44.417969zm0 0" fill="#76ffd9"/><path d="m52.6875 370.851562-44.40625 116.597657c-1.03125 2.707031-.199219 6.59375 1.847656 8.640625l5.78125 5.78125c2.046875 2.046875 5.933594 2.878906 8.636719 1.847656l5.773437-2.199219 42.207032-110.824219zm0 0" fill="#5de0bf"/><path d="m397.390625 9.371094c2.046875-2.046875 5.394531-2.046875 7.441406 0l97.679688 97.703125c2.046875 2.046875 2.046875 5.394531 0 7.441406l-349.328125 349.414063c-2.046875 2.046874-5.394532 2.046874-7.441406 0l-97.679688-97.703126c-2.046875-2.046874-2.046875-5.394531 0-7.441406zm0 0" fill="#76ffd9"/><path d="m67.472656 382.960938 354.117188-354.199219c.460937-.464844.996094-.808594 1.5625-1.066407l-18.320313-18.324218c-2.046875-2.046875-5.394531-2.046875-7.441406 0l-349.328125 349.414062c-2.046875 2.046875-2.046875 5.394532 0 7.441406l18.328125 18.332032c.257813-.578125.609375-1.125 1.082031-1.597656zm0 0" fill="#5de0bf"/><path d="m367.660156 198.417969c2.046875-2.046875 5.394532-2.046875 7.441406 0l18.042969 18.046875c2.046875 2.046875 2.046875 5.394531 0 7.441406l-130.59375 130.628906c-2.046875 2.046875-5.394531 2.046875-7.441406 0l-18.042969-18.046875c-2.046875-2.046875-2.046875-5.398437 0-7.445312zm0 0" fill="#ffc843"/><path d="m137.796875 269.027344c.171875.183594.339844.371094.515625.546875 13.90625 13.910156 36.453125 13.910156 50.359375 0l125.902344-125.933594c13.90625-13.910156 13.90625-36.460937 0-50.371094-.179688-.179687-.363281-.34375-.542969-.515625zm0 0" fill="#ffc843"/><path d="m363.949219 42.820312 105.117187 105.148438-25.394531 25.398438-105.117187-105.144532zm0 0" fill="#fff"/><path d="m103.804688 303.027344 105.117187 105.144531-25.394531 25.402344-105.121094-105.144531zm0 0" fill="#fff"/><path d="m508.054688 101.53125-16.160157-16.164062c-3.0625-3.0625-8.023437-3.0625-11.082031 0-3.0625 3.058593-3.0625 8.019531-.003906 11.082031l14.34375 14.34375-345.691406 345.773437-94.039063-94.0625 345.691406-345.769531 55.667969 55.679687c3.058594 3.0625 8.019531 3.0625 11.082031 0 3.058594-3.058593 3.058594-8.019531 0-11.082031l-57.492187-57.5c-2.464844-2.46875-5.757813-3.832031-9.257813-3.832031-3.503906 0-6.792969 1.359375-9.261719 3.832031l-349.332031 349.410157c-5.105469 5.109374-5.105469 13.417968 0 18.523437l1.039063 1.039063-42.601563 111.855468c-2.132812 5.597656-.605469 12.734375 3.628907 16.96875l5.777343 5.78125c2.953125 2.953125 7.3125 4.589844 11.578125 4.589844 1.855469 0 3.695313-.3125 5.394532-.957031l27.640624-10.53125c4.046876-1.542969 6.074219-6.070313 4.535157-10.113281-1.542969-4.046876-6.070313-6.078126-10.113281-4.535157l-27.460938 10.464844c-.179688-.003906-.460938-.0625-.625-.136719l-5.503906-5.503906c-.074219-.167969-.132813-.449219-.136719-.632812l40.03125-105.105469 71.316406 71.335937-19 7.242188-33.460937-33.46875c-3.058594-3.058594-8.019532-3.0625-11.082032 0-3.058593 3.058594-3.0625 8.023437 0 11.082031l28.492188 28.5-10.179688 3.878906c-4.042968 1.542969-6.074218 6.070313-4.53125 10.113281 1.539063 4.046876 6.070313 6.078126 10.113282 4.535157l51.792968-19.734375 1.035157 1.035156c2.472656 2.46875 5.761719 3.832031 9.261719 3.832031 3.503906 0 6.792968-1.363281 9.265624-3.832031l349.328126-349.410156c5.105468-5.109375 5.105468-13.417969 0-18.527344zm0 0" fill="#434c54"/></svg>